# xmcd
#
# Track frame offsets: 
#        150
#        24917
#        48853
#        72433
#        90859
#        115705
#        140472
#        158552
#        177328
#        205966
#
# Disc length: 3074 seconds
#
# Revision: 0
# Processed by: cddbd v1.5.2PL0 Copyright (c) Steve Scherf et al.
# Submitted via: ExactAudioCopy v0.99pb3
#
DISCID=770c000a
DTITLE=Breeze - The Breeze Band
DYEAR=2006
DGENRE=Native American
TTITLE0=loaded gun
TTITLE1=soul
TTITLE2=mystify
TTITLE3=woman like you
TTITLE4=massena
TTITLE5=true believer
TTITLE6=road to eden
TTITLE7=beg, borrow and steal
TTITLE8=steel worker blues
TTITLE9=unforgiven
EXTD=
EXTT0=
EXTT1=
EXTT2=
EXTT3=
EXTT4=
EXTT5=
EXTT6=
EXTT7=
EXTT8=
EXTT9=
PLAYORDER=
